<svg xmlns="http://www.w3.org/2000/svg" viewBox="0 0 134.15 116.84">
  <defs>
    <style>
      .cls-1,
      .cls-2,
      .cls-3 {
        fill: #fff;
      }

      .cls-1 {
        opacity: 0.8;
      }

      .cls-2 {
        opacity: 0.6;
      }
    </style>
  </defs>
  <g id="Layer_2" data-name="Layer 2">
    <g id="Layer_1-2" data-name="Layer 1">
      <polygon class="cls-1" points="35.2 15.25 26.39 30.49 8.79 30.49 17.6 15.25 35.2 15.25" />
      <polygon class="cls-2" points="17.6 15.25 8.79 30.49 0 15.25 8.79 0 17.6 15.25" />
      <polygon class="cls-3" points="35.2 15.25 17.6 15.25 8.79 0 26.39 0 35.2 15.25" />
      <polygon class="cls-2"
        points="67.08 101.58 67.08 101.59 65.39 104.5 58.28 116.84 49.48 101.59 49.48 101.58 21.09 52.34 29.88 37.09 38.69 52.34 47.49 67.57 47.46 67.57 58.29 86.35 58.28 86.35 67.08 101.58" />
      <polygon class="cls-2"
        points="92.43 58.93 92.45 58.97 83.67 74.18 58.32 30.49 58.3 30.45 49.47 15.25 58.28 0 67.09 15.22 67.08 15.25 67.07 15.25 67.99 16.82 67.08 15.25 67.11 15.25 75.92 30.43 75.9 30.45 83.62 43.77 83.63 43.75 83.67 43.69 92.47 58.93 92.43 58.93" />
      <polygon class="cls-1"
        points="110.07 58.93 101.27 74.18 83.67 74.18 92.45 58.97 92.46 58.96 92.47 58.93 110.07 58.93" />
      <polygon class="cls-3"
        points="110.07 58.93 92.47 58.93 83.67 43.69 83.63 43.75 75.92 30.43 67.11 15.25 67.09 15.22 58.28 0 75.88 0 101.23 43.69 101.25 43.73 110.07 58.93" />
      <polygon class="cls-2" points="116.56 15.25 107.75 30.49 98.95 15.25 107.75 0 116.56 15.25" />
      <polygon class="cls-1" points="134.15 15.25 125.35 30.49 107.75 30.49 116.56 15.25 134.15 15.25" />
      <polygon class="cls-3" points="134.15 15.25 116.56 15.25 107.75 0 125.35 0 134.15 15.25" />
      <polygon class="cls-1" points="84.67 101.59 75.88 116.84 58.28 116.84 65.39 104.5 67.08 101.59 84.67 101.59" />
      <polygon class="cls-3"
        points="67.08 101.59 67.08 101.58 58.29 86.35 47.46 67.57 47.49 67.57 38.69 52.34 29.88 37.09 47.49 37.09 56.28 52.34 56.29 52.34 56.29 52.35 75.88 86.35 84.67 101.59 67.08 101.59" />
    </g>
  </g>
</svg>