<?xml version="1.0" encoding="UTF-8"?>
<svg width="229px" height="65px" viewBox="0 0 229 65" version="1.1" xmlns="http://www.w3.org/2000/svg" xmlns:xlink="http://www.w3.org/1999/xlink">
    <title>Group</title>
    <g id="Assets" stroke="none" stroke-width="1" fill="none" fill-rule="evenodd">
        <g id="LOGO1" transform="translate(-11.000000, -14.000000)" fill="#000000" fill-rule="nonzero">
            <g id="Group" transform="translate(11.000000, 14.000000)">
                <path d="M7.41477273,36 L7.414,24.682 L13.6193182,24.6818182 C16.1433824,24.6818182 18.317651,24.2439446 20.1421241,23.3681975 L20.4801136,23.1988636 C22.3721591,22.2102273 23.8181818,20.8295455 24.8181818,19.0568182 C25.8181818,17.2840909 26.3181818,15.2386364 26.3181818,12.9204545 C26.3181818,10.6022727 25.8267045,8.55397727 24.84375,6.77556818 C23.8607955,4.99715909 22.4375,3.60511364 20.5738636,2.59943182 C18.7102273,1.59375 16.4545455,1.09090909 13.8068182,1.09090909 L13.8068182,1.09090909 L0.0340909091,1.09090909 L0.0340909091,36 L7.41477273,36 Z M7.41477273,7.125 L12.3920455,7.125 C13.8238636,7.125 15.0056818,7.36647727 15.9375,7.84943182 C16.8693182,8.33238636 17.5653409,9.00852273 18.0255682,9.87784091 C18.4857955,10.7471591 18.7159091,11.7613636 18.7159091,12.9204545 C18.7159091,14.0681818 18.4857955,15.0823864 18.0255682,15.9630682 C17.5653409,16.84375 16.8721591,17.53125 15.9460227,18.0255682 C15.0198864,18.5198864 13.8465909,18.7670455 12.4261364,18.7670455 L12.4261364,18.7670455 L7.414,18.768 L7.41477273,7.125 Z M33.1022478,36 L35.691,28.04 L48.296,28.04 L50.8806568,36 L58.7897478,36 L46.7556568,1.09090909 L37.2442932,1.09090909 L25.1931568,36 L33.1022478,36 Z M46.425,22.279 L37.566,22.279 L41.8636114,9.06818182 L42.1363387,9.06818182 L46.425,22.279 Z M75.3339261,36 L75.3339261,7.17613636 L86.0214261,7.17613636 L86.0214261,1.09090909 L57.3509716,1.09090909 L57.3509716,7.17613636 L68.0384716,7.17613636 L68.0384716,36 L75.3339261,36 Z M98.1475109,36 L98.147,23.625 L103.534,23.625 L110.147511,36 L118.295238,36 L110.89,22.441 L111.212852,22.2954545 C112.986644,21.4644886 114.368425,20.2914484 115.358193,18.7763339 L115.55092,18.46875 C116.55092,16.8039773 117.05092,14.8125 117.05092,12.4943182 C117.05092,10.1875 116.559443,8.17897727 115.576488,6.46875 C114.593534,4.75852273 113.167397,3.43465909 111.298079,2.49715909 C109.428761,1.55965909 107.17592,1.09090909 104.539556,1.09090909 L104.539556,1.09090909 L90.7668291,1.09090909 L90.7668291,36 L98.1475109,36 Z M98.1475109,7.125 L103.124784,7.125 C104.545238,7.125 105.724215,7.33238636 106.661715,7.74715909 C107.599215,8.16193182 108.298079,8.76704545 108.758306,9.5625 C109.218534,10.3579545 109.448647,11.3352273 109.448647,12.4943182 C109.448647,13.6420455 109.218534,14.6022727 108.758306,15.375 C108.298079,16.1477273 107.602056,16.7272727 106.670238,17.1136364 C105.73842,17.5 104.567965,17.6931818 103.158875,17.6931818 L103.158875,17.6931818 L98.147,17.694 L98.1475109,7.125 Z M140.283841,36 L140.283841,23.6590909 L153.016796,1.09090909 L144.74975,1.09090909 L136.789523,16.125 L136.448614,16.125 L128.488387,1.09090909 L120.221341,1.09090909 L132.954296,23.6590909 L132.954296,36 L140.283841,36 Z M170.556452,36.4772727 C172.795088,36.4772727 174.803611,36.1392045 176.58202,35.4630682 C178.360429,34.7869318 179.89452,33.8664773 181.184293,32.7017045 C182.474066,31.5369318 183.502475,30.2130682 184.26952,28.7301136 C185.036566,27.2471591 185.516679,25.7045455 185.709861,24.1022727 L185.709861,24.1022727 L178.243952,24.0681818 C178.073497,25 177.76952,25.8295455 177.33202,26.5568182 C176.89452,27.2840909 176.346225,27.9005682 175.687134,28.40625 C175.028043,28.9119318 174.275202,29.2954545 173.428611,29.5568182 C172.58202,29.8181818 171.664407,29.9488636 170.67577,29.9488636 C168.914407,29.9488636 167.36327,29.5170455 166.022361,28.6534091 C164.681452,27.7897727 163.638838,26.5113636 162.89452,24.8181818 C162.150202,23.125 161.778043,21.0340909 161.778043,18.5454545 C161.778043,16.125 162.147361,14.0653409 162.885997,12.3664773 C163.624634,10.6676136 164.664407,9.37215909 166.005316,8.48011364 C167.346225,7.58806818 168.920088,7.14204545 170.726907,7.14204545 C171.726907,7.14204545 172.655884,7.28409091 173.513838,7.56818182 C174.371793,7.85227273 175.130316,8.26136364 175.789407,8.79545455 C176.448497,9.32954545 176.98827,9.97443182 177.408725,10.7301136 C177.829179,11.4857955 178.107588,12.3465909 178.243952,13.3125 L178.243952,13.3125 L185.709861,13.3125 C185.471225,11.2897727 184.928611,9.49431818 184.08202,7.92613636 C183.235429,6.35795455 182.141679,5.03125 180.80077,3.94602273 C179.459861,2.86079545 177.922929,2.03409091 176.189975,1.46590909 C174.45702,0.897727273 172.579179,0.613636364 170.556452,0.613636364 C167.48827,0.613636364 164.726907,1.31534091 162.272361,2.71875 C159.817816,4.12215909 157.874634,6.15909091 156.442816,8.82954545 C155.010997,11.5 154.295088,14.7386364 154.295088,18.5454545 C154.295088,22.3409091 155.002475,25.5738636 156.417247,28.2443182 C157.83202,30.9147727 159.763838,32.9545455 162.212702,34.3636364 C164.661566,35.7727273 167.442816,36.4772727 170.556452,36.4772727 Z M198.384813,36 L198.384813,26.0795455 L202.015495,21.6477273 L211.577995,36 L220.40754,36 L207.299586,16.7215909 L220.254131,1.09090909 L211.40754,1.09090909 L198.84504,16.4829545 L198.384813,16.4829545 L198.384813,1.09090909 L191.004131,1.09090909 L191.004131,36 L198.384813,36 Z" id="PATRYCK"></path>
                <path d="M15.0568182,59 L19.1051136,44.1960227 L19.2159091,44.1960227 L23.2642045,59 L24.96875,59 L29.75,41.5454545 L28.1221591,41.5454545 L24.1676136,56.5539773 L24.03125,56.5539773 L20.0767045,41.5454545 L18.2357955,41.5454545 L14.28125,56.5539773 L14.1448864,56.5539773 L10.1903409,41.5454545 L8.57102273,41.5454545 L13.3522727,59 L15.0568182,59 Z M42.9318459,59 L42.9318459,57.5681818 L34.2301414,57.5681818 L34.2301414,50.9801136 L42.2244596,50.9801136 L42.2244596,49.5482955 L34.2301414,49.5482955 L34.2301414,42.9772727 L42.7613914,42.9772727 L42.7613914,41.5454545 L32.6363914,41.5454545 L32.6363914,59 L42.9318459,59 Z M53.0881029,59 C54.3381029,59 55.3679324,58.8025568 56.1775915,58.4076705 C56.9872506,58.0127841 57.5881029,57.4701705 57.9801483,56.7798295 C58.3721938,56.0894886 58.5682165,55.3039773 58.5682165,54.4232955 C58.5682165,53.5369318 58.397762,52.7755682 58.0568529,52.1392045 C57.7159438,51.5028409 57.2812847,51.0071023 56.7528756,50.6519886 C56.2244665,50.296875 55.679012,50.0994318 55.116512,50.0596591 L55.116512,50.0596591 L55.116512,49.9232955 C55.6335574,49.78125 56.1023074,49.5511364 56.522762,49.2329545 C56.9432165,48.9147727 57.2756029,48.4971591 57.519921,47.9801136 C57.7642392,47.4630682 57.8863983,46.8409091 57.8863983,46.1136364 C57.8863983,45.2386364 57.6960574,44.4573864 57.3153756,43.7698864 C56.9346938,43.0823864 56.3650915,42.5397727 55.6065688,42.1420455 C54.848046,41.7443182 53.9006029,41.5454545 52.7642392,41.5454545 L52.7642392,41.5454545 L46.8750347,41.5454545 L46.8750347,59 L53.0881029,59 Z M52.9091256,49.4289773 L48.4687847,49.4289773 L48.4687847,42.9772727 L52.7642392,42.9772727 C53.957421,42.9772727 54.8551483,43.2684659 55.457421,43.8508523 C56.0596938,44.4332386 56.3608301,45.1875 56.3608301,46.1136364 C56.3608301,46.7556818 56.2159438,47.3267045 55.926171,47.8267045 C55.6363983,48.3267045 55.2329892,48.71875 54.7159438,49.0028409 C54.1988983,49.2869318 53.5966256,49.4289773 52.9091256,49.4289773 L52.9091256,49.4289773 Z M53.0881029,57.5681818 L48.4687847,57.5681818 L48.4687847,50.84375 L53.1562847,50.84375 C53.9403756,50.84375 54.6236142,51.0028409 55.2060006,51.3210227 C55.788387,51.6392045 56.2400915,52.0696023 56.5611142,52.6122159 C56.882137,53.1548295 57.0426483,53.7585227 57.0426483,54.4232955 C57.0426483,55.3267045 56.7202051,56.0767045 56.0753188,56.6732955 C55.4304324,57.2698864 54.4346938,57.5681818 53.0881029,57.5681818 L53.0881029,57.5681818 Z M74.2727668,59 C76.0227668,59 77.5128236,58.6505682 78.7429373,57.9517045 C79.9730509,57.2528409 80.9105509,56.2485795 81.5554373,54.9389205 C82.2003236,53.6292614 82.5227668,52.0596591 82.5227668,50.2301136 C82.5227668,48.4176136 82.2074259,46.8636364 81.5767441,45.5681818 C80.9460623,44.2727273 80.0383918,43.2784091 78.8537327,42.5852273 C77.6690736,41.8920455 76.2443577,41.5454545 74.579585,41.5454545 L74.579585,41.5454545 L69.1591304,41.5454545 L69.1591304,59 L74.2727668,59 Z M74.1790168,57.5681818 L70.7528804,57.5681818 L70.7528804,42.9772727 L74.485835,42.9772727 C75.9006077,42.9772727 77.0895282,43.2670455 78.0525964,43.8465909 C79.0156645,44.4261364 79.7429373,45.2585227 80.2344145,46.34375 C80.7258918,47.4289773 80.9744714,48.7244318 80.9801532,50.2301136 C80.9801532,51.7471591 80.7273123,53.0539773 80.2216304,54.1505682 C79.7159486,55.2471591 78.9574259,56.0909091 77.9460623,56.6818182 C76.9346986,57.2727273 75.6790168,57.5681818 74.1790168,57.5681818 L74.1790168,57.5681818 Z M96.6704962,59 L96.6704962,57.5681818 L87.9687916,57.5681818 L87.9687916,50.9801136 L95.9631098,50.9801136 L95.9631098,49.5482955 L87.9687916,49.5482955 L87.9687916,42.9772727 L96.5000416,42.9772727 L96.5000416,41.5454545 L86.3750416,41.5454545 L86.3750416,59 L96.6704962,59 Z M107.022776,59 L113.372208,41.5454545 L111.701753,41.5454545 L106.247208,56.9289773 L106.093799,56.9289773 L100.639253,41.5454545 L98.9687986,41.5454545 L105.31823,59 L107.022776,59 Z M126.659169,59 L126.659169,57.5681818 L117.957464,57.5681818 L117.957464,50.9801136 L125.951782,50.9801136 L125.951782,49.5482955 L117.957464,49.5482955 L117.957464,42.9772727 L126.488714,42.9772727 L126.488714,41.5454545 L116.363714,41.5454545 L116.363714,59 L126.659169,59 Z M140.514289,59 L140.514289,57.5681818 L132.196107,57.5681818 L132.196107,41.5454545 L130.602357,41.5454545 L130.602357,59 L140.514289,59 Z M150.179062,59.2386364 C151.650653,59.2386364 152.95321,58.8707386 154.086732,58.1349432 C155.220255,57.3991477 156.11088,56.359375 156.758607,55.015625 C157.406335,53.671875 157.730198,52.0909091 157.730198,50.2727273 C157.730198,48.4545455 157.406335,46.8735795 156.758607,45.5298295 C156.11088,44.1860795 155.220255,43.1463068 154.086732,42.4105114 C152.95321,41.6747159 151.650653,41.3068182 150.179062,41.3068182 C148.713153,41.3068182 147.412016,41.6747159 146.275653,42.4105114 C145.139289,43.1463068 144.248664,44.1860795 143.603778,45.5298295 C142.958891,46.8735795 142.636448,48.4545455 142.636448,50.2727273 C142.636448,52.0909091 142.958891,53.671875 143.603778,55.015625 C144.248664,56.359375 145.137869,57.3991477 146.271391,58.1349432 C147.404914,58.8707386 148.707471,59.2386364 150.179062,59.2386364 Z M150.179062,57.7386364 C149.031335,57.7386364 148.005766,57.4417614 147.102357,56.8480114 C146.198948,56.2542614 145.48588,55.4005682 144.963153,54.2869318 C144.440426,53.1732955 144.179062,51.8352273 144.179062,50.2727273 C144.179062,48.7045455 144.441846,47.3636364 144.967414,46.25 C145.492982,45.1363636 146.207471,44.2840909 147.11088,43.6931818 C148.014289,43.1022727 149.037016,42.8068182 150.179062,42.8068182 C151.326789,42.8068182 152.352357,43.1022727 153.255766,43.6931818 C154.159176,44.2840909 154.872244,45.1377841 155.394971,46.2542614 C155.917698,47.3707386 156.179154,48.7102273 156.179154,50.2727273 C156.184744,51.8352273 155.926221,53.1747159 155.403494,54.2911932 C154.880766,55.4076705 154.166278,56.2613636 153.260028,56.8522727 C152.353778,57.4431818 151.326789,57.7386364 150.179062,57.7386364 Z M163.173387,59 L163.173,52.327 L167.238728,52.3267045 C168.359596,52.3267045 169.313765,52.1306583 170.101237,51.7385659 L170.332478,51.6150568 C171.162023,51.140625 171.787023,50.4957386 172.207478,49.6803977 C172.627932,48.8650568 172.83816,47.9488636 172.83816,46.9318182 C172.83816,45.9147727 172.626512,45 172.203217,44.1875 C171.779921,43.375 171.15208,42.7315341 170.319694,42.2571023 C169.487307,41.7826705 168.451796,41.5454545 167.21316,41.5454545 L167.21316,41.5454545 L161.579637,41.5454545 L161.579637,59 L163.173387,59 Z M163.173387,42.9772727 L167.170546,42.9772727 C168.096682,42.9772727 168.862307,43.1477273 169.467421,43.4886364 C170.072535,43.8295455 170.524239,44.2982955 170.822535,44.8948864 C171.12083,45.4914773 171.269978,46.1704545 171.269978,46.9318182 C171.269978,47.6931818 171.12083,48.3721591 170.822535,48.96875 C170.524239,49.5653409 170.073955,50.0355114 169.471682,50.3792614 C168.86941,50.7230114 168.110887,50.8948864 167.196114,50.8948864 L167.196114,50.8948864 L163.173,50.895 L163.173387,42.9772727 Z M186.886469,59 L186.886469,57.5681818 L178.184765,57.5681818 L178.184765,50.9801136 L186.179083,50.9801136 L186.179083,49.5482955 L178.184765,49.5482955 L178.184765,42.9772727 L186.716015,42.9772727 L186.716015,41.5454545 L176.591015,41.5454545 L176.591015,59 L186.886469,59 Z M192.423408,59 L192.423,51.944 L196.488749,51.9431818 C196.711889,51.9431818 196.928456,51.9359504 197.138448,51.9214876 L197.157,51.92 L200.980226,59 L202.821135,59 L198.792,51.615 L198.850882,51.5960744 C199.021431,51.5382231 199.185405,51.4731405 199.342806,51.4008264 L199.573976,51.2869318 C200.403521,50.8494318 201.029942,50.2414773 201.453237,49.4630682 C201.876533,48.6846591 202.088181,47.7869318 202.088181,46.7698864 C202.088181,45.7528409 201.876533,44.8508523 201.453237,44.0639205 C201.029942,43.2769886 200.402101,42.6605114 199.569715,42.2144886 C198.737328,41.7684659 197.701817,41.5454545 196.463181,41.5454545 L196.463181,41.5454545 L190.829658,41.5454545 L190.829658,59 L192.423408,59 Z M192.423408,42.9772727 L196.420567,42.9772727 C197.341021,42.9772727 198.103806,43.1335227 198.708919,43.4460227 C199.314033,43.7585227 199.767158,44.2002841 200.068294,44.7713068 C200.369431,45.3423295 200.519999,46.0085227 200.519999,46.7698864 C200.519999,47.53125 200.370851,48.1903409 200.072556,48.7471591 C199.77426,49.3039773 199.322556,49.7329545 198.717442,50.0340909 C198.112328,50.3352273 197.355226,50.4857955 196.446135,50.4857955 L196.446135,50.4857955 L192.423,50.486 L192.423408,42.9772727 Z" id="WEBDEVELOPER"></path>
            </g>
        </g>
    </g>
</svg>